<?xml version="1.0" standalone="no"?>
<!DOCTYPE svg PUBLIC "-//W3C//DTD SVG 20010904//EN"
 "http://www.w3.org/TR/2001/REC-SVG-20010904/DTD/svg10.dtd">
<svg version="1.0" xmlns="http://www.w3.org/2000/svg"
 width="50.000000pt" height="50.000000pt" viewBox="0 0 50.000000 50.000000"
 preserveAspectRatio="xMidYMid meet">

<g transform="translate(0.000000,50.000000) scale(0.100000,-0.100000)"
fill="#000000" stroke="none">
<path d="M92 482 c-127 -46 -120 -109 16 -148 137 -40 348 25 306 94 -36 61
-217 91 -322 54z"/>
<path d="M0 324 c0 -23 7 -38 26 -53 55 -44 192 -64 272 -42 20 6 32 6 32 0 0
-39 -199 -37 -280 3 l-50 25 0 -32 c0 -58 68 -95 187 -103 51 -3 80 -9 76 -15
-11 -19 -160 -1 -214 26 l-49 24 0 -33 c0 -23 7 -38 26 -53 32 -25 114 -51
161 -51 18 0 33 -4 33 -10 0 -11 33 -13 79 -4 17 4 31 13 31 20 0 8 7 14 15
14 8 0 15 7 15 15 0 8 7 15 15 15 8 0 15 7 15 15 0 9 10 15 26 15 37 0 84 50
84 90 0 33 -46 90 -72 90 -10 0 -12 11 -10 39 l4 39 -54 -27 c-47 -23 -65 -26
-158 -26 -93 0 -111 3 -158 26 l-52 26 0 -33z m457 -86 c29 -27 29 -65 1 -95
-27 -29 -65 -29 -95 -1 -29 27 -29 65 -1 95 27 29 65 29 95 1z m-152 -138
c-49 -51 -37 -66 13 -17 21 21 41 34 45 31 12 -12 8 -24 -8 -24 -8 0 -15 -7
-15 -15 0 -8 -7 -15 -15 -15 -8 0 -15 -6 -15 -14 0 -13 -28 -26 -57 -26 -26 0
-12 35 29 77 23 24 47 43 52 43 6 0 -7 -18 -29 -40z"/>
<path d="M424 219 c-10 -17 13 -36 27 -22 12 12 4 33 -11 33 -5 0 -12 -5 -16
-11z"/>
</g>
</svg>
