<?xml version="1.0" standalone="no"?>
<!DOCTYPE svg PUBLIC "-//W3C//DTD SVG 20010904//EN"
 "http://www.w3.org/TR/2001/REC-SVG-20010904/DTD/svg10.dtd">
<svg version="1.0" xmlns="http://www.w3.org/2000/svg"
 width="55.000000pt" height="45.000000pt" viewBox="0 0 45.000000 45.000000"
 preserveAspectRatio="xMidYMid meet">

<g transform="translate(0.000000,50.000000) scale(0.100000,-0.100000)"
fill="#fff" stroke="none">
<path d="M204 465 c-8 -19 -87 -65 -112 -65 -28 0 -67 -67 -51 -86 15 -18 15
-110 0 -128 -16 -19 23 -86 51 -86 25 0 104 -46 112 -65 7 -20 85 -20 92 0 8
19 87 65 112 65 28 0 67 67 51 86 -15 18 -15 110 0 128 16 19 -23 86 -51 86
-25 0 -104 46 -112 65 -3 10 -20 15 -46 15 -26 0 -43 -5 -46 -15z m-10 -214
c19 -64 19 -71 6 -71 -5 0 -10 7 -10 15 0 9 -9 15 -25 15 -16 0 -25 -6 -25
-15 0 -8 -4 -15 -10 -15 -5 0 -10 4 -10 8 0 11 31 115 37 125 9 14 20 -5 37
-62z m111 24 c0 -36 -3 -40 -27 -43 -22 -3 -28 -9 -28 -28 0 -13 -4 -24 -10
-24 -6 0 -10 30 -10 71 l0 70 38 -3 c36 -3 37 -4 37 -43z m60 -25 c0 -56 -3
-70 -15 -70 -12 0 -15 14 -15 70 0 56 3 70 15 70 12 0 15 -14 15 -70z"/>
<path d="M157 250 c-3 -12 0 -20 8 -20 8 0 11 8 8 20 -3 11 -7 20 -8 20 -1 0
-5 -9 -8 -20z"/>
<path d="M250 275 c0 -18 5 -25 20 -25 15 0 20 7 20 25 0 18 -5 25 -20 25 -15
0 -20 -7 -20 -25z"/>
</g>
</svg>
