<svg xmlns="http://www.w3.org/2000/svg" version="1.1" xmlns:xlink="http://www.w3.org/1999/xlink" xmlns:svgjs="http://svgjs.dev/svgjs" width="1440" height="560" preserveAspectRatio="none" viewBox="0 0 1440 560"><g mask="url(&quot;#SvgjsMask1145&quot;)" fill="none"><rect width="1440" height="560" x="0" y="0" fill="url(&quot;#SvgjsLinearGradient1146&quot;)"></rect><path d="M62.15 191.41L127.1 228.91L127.1 303.91L62.15 341.41L-2.8 303.91L-2.8 228.91zM127.1 303.91L192.06 341.41L192.06 416.41L127.1 453.91L62.15 416.41L62.15 341.41zM127.1 528.91L192.06 566.41L192.06 641.41L127.1 678.91L62.15 641.41L62.15 566.41zM257.01 528.91L321.96 566.41L321.96 641.41L257.01 678.91L192.06 641.41L192.06 566.41zM386.92 78.91L451.87 116.41L451.87 191.41L386.92 228.91L321.96 191.41L321.96 116.41zM321.96 191.41L386.92 228.91L386.92 303.91L321.96 341.41L257.01 303.91L257.01 228.91zM321.96 416.41L386.92 453.91L386.92 528.91L321.96 566.41L257.01 528.91L257.01 453.91zM386.92 528.91L451.87 566.41L451.87 641.41L386.92 678.91L321.96 641.41L321.96 566.41zM451.87 -33.59L516.83 3.91L516.83 78.91L451.87 116.41L386.92 78.91L386.92 3.91zM516.83 78.91L581.78 116.41L581.78 191.41L516.83 228.91L451.87 191.41L451.87 116.41zM516.83 303.91L581.78 341.41L581.78 416.41L516.83 453.91L451.87 416.41L451.87 341.41zM451.87 416.41L516.83 453.91L516.83 528.91L451.87 566.41L386.92 528.91L386.92 453.91zM581.78 -33.59L646.73 3.91L646.73 78.91L581.78 116.41L516.83 78.91L516.83 3.91zM646.73 303.91L711.69 341.41L711.69 416.41L646.73 453.91L581.78 416.41L581.78 341.41zM711.69 -33.59L776.64 3.91L776.64 78.91L711.69 116.41L646.73 78.91L646.73 3.91zM711.69 191.41L776.64 228.91L776.64 303.91L711.69 341.41L646.73 303.91L646.73 228.91zM841.59 191.41L906.55 228.91L906.55 303.91L841.59 341.41L776.64 303.91L776.64 228.91zM906.55 303.91L971.5 341.41L971.5 416.41L906.55 453.91L841.59 416.41L841.59 341.41zM971.5 -33.59L1036.46 3.91L1036.46 78.91L971.5 116.41L906.55 78.91L906.55 3.91zM971.5 191.41L1036.46 228.91L1036.46 303.91L971.5 341.41L906.55 303.91L906.55 228.91zM1036.46 303.91L1101.41 341.41L1101.41 416.41L1036.46 453.91L971.5 416.41L971.5 341.41zM1036.46 528.91L1101.41 566.41L1101.41 641.41L1036.46 678.91L971.5 641.41L971.5 566.41zM1101.41 -33.59L1166.36 3.91L1166.36 78.91L1101.41 116.41L1036.46 78.91L1036.46 3.91zM1166.36 78.91L1231.32 116.41L1231.32 191.41L1166.36 228.91L1101.41 191.41L1101.41 116.41zM1166.36 303.91L1231.32 341.41L1231.32 416.41L1166.36 453.91L1101.41 416.41L1101.41 341.41zM1101.41 416.41L1166.36 453.91L1166.36 528.91L1101.41 566.41L1036.46 528.91L1036.46 453.91zM1166.36 528.91L1231.32 566.41L1231.32 641.41L1166.36 678.91L1101.41 641.41L1101.41 566.41zM1231.32 191.41L1296.27 228.91L1296.27 303.91L1231.32 341.41L1166.36 303.91L1166.36 228.91zM1296.27 303.91L1361.22 341.41L1361.22 416.41L1296.27 453.91L1231.32 416.41L1231.32 341.41zM1231.32 416.41L1296.27 453.91L1296.27 528.91L1231.32 566.41L1166.36 528.91L1166.36 453.91zM1296.27 528.91L1361.22 566.41L1361.22 641.41L1296.27 678.91L1231.32 641.41L1231.32 566.41zM1426.18 78.91L1491.13 116.41L1491.13 191.41L1426.18 228.91L1361.23 191.41L1361.23 116.41zM1361.23 191.41L1426.18 228.91L1426.18 303.91L1361.23 341.41L1296.27 303.91L1296.27 228.91zM1426.18 528.91L1491.13 566.41L1491.13 641.41L1426.18 678.91L1361.23 641.41L1361.23 566.41zM1556.09 303.91L1621.04 341.41L1621.04 416.41L1556.09 453.91L1491.13 416.41L1491.13 341.41z" stroke="#03305d" stroke-width="2"></path><path d="M54.65 191.41 a7.5 7.5 0 1 0 15 0 a7.5 7.5 0 1 0 -15 0zM119.6 228.91 a7.5 7.5 0 1 0 15 0 a7.5 7.5 0 1 0 -15 0zM119.6 303.91 a7.5 7.5 0 1 0 15 0 a7.5 7.5 0 1 0 -15 0zM54.65 341.41 a7.5 7.5 0 1 0 15 0 a7.5 7.5 0 1 0 -15 0zM-10.3 303.91 a7.5 7.5 0 1 0 15 0 a7.5 7.5 0 1 0 -15 0zM-10.3 228.91 a7.5 7.5 0 1 0 15 0 a7.5 7.5 0 1 0 -15 0zM184.56 341.41 a7.5 7.5 0 1 0 15 0 a7.5 7.5 0 1 0 -15 0zM184.56 416.41 a7.5 7.5 0 1 0 15 0 a7.5 7.5 0 1 0 -15 0zM119.6 453.91 a7.5 7.5 0 1 0 15 0 a7.5 7.5 0 1 0 -15 0zM54.65 416.41 a7.5 7.5 0 1 0 15 0 a7.5 7.5 0 1 0 -15 0zM119.6 528.91 a7.5 7.5 0 1 0 15 0 a7.5 7.5 0 1 0 -15 0zM184.56 566.41 a7.5 7.5 0 1 0 15 0 a7.5 7.5 0 1 0 -15 0zM184.56 641.41 a7.5 7.5 0 1 0 15 0 a7.5 7.5 0 1 0 -15 0zM119.6 678.91 a7.5 7.5 0 1 0 15 0 a7.5 7.5 0 1 0 -15 0zM54.65 641.41 a7.5 7.5 0 1 0 15 0 a7.5 7.5 0 1 0 -15 0zM54.65 566.41 a7.5 7.5 0 1 0 15 0 a7.5 7.5 0 1 0 -15 0zM249.51 528.91 a7.5 7.5 0 1 0 15 0 a7.5 7.5 0 1 0 -15 0zM314.46 566.41 a7.5 7.5 0 1 0 15 0 a7.5 7.5 0 1 0 -15 0zM314.46 641.41 a7.5 7.5 0 1 0 15 0 a7.5 7.5 0 1 0 -15 0zM249.51 678.91 a7.5 7.5 0 1 0 15 0 a7.5 7.5 0 1 0 -15 0zM379.42 78.91 a7.5 7.5 0 1 0 15 0 a7.5 7.5 0 1 0 -15 0zM444.37 116.41 a7.5 7.5 0 1 0 15 0 a7.5 7.5 0 1 0 -15 0zM444.37 191.41 a7.5 7.5 0 1 0 15 0 a7.5 7.5 0 1 0 -15 0zM379.42 228.91 a7.5 7.5 0 1 0 15 0 a7.5 7.5 0 1 0 -15 0zM314.46 191.41 a7.5 7.5 0 1 0 15 0 a7.5 7.5 0 1 0 -15 0zM314.46 116.41 a7.5 7.5 0 1 0 15 0 a7.5 7.5 0 1 0 -15 0zM379.42 303.91 a7.5 7.5 0 1 0 15 0 a7.5 7.5 0 1 0 -15 0zM314.46 341.41 a7.5 7.5 0 1 0 15 0 a7.5 7.5 0 1 0 -15 0zM249.51 303.91 a7.5 7.5 0 1 0 15 0 a7.5 7.5 0 1 0 -15 0zM249.51 228.91 a7.5 7.5 0 1 0 15 0 a7.5 7.5 0 1 0 -15 0zM314.46 416.41 a7.5 7.5 0 1 0 15 0 a7.5 7.5 0 1 0 -15 0zM379.42 453.91 a7.5 7.5 0 1 0 15 0 a7.5 7.5 0 1 0 -15 0zM379.42 528.91 a7.5 7.5 0 1 0 15 0 a7.5 7.5 0 1 0 -15 0zM249.51 453.91 a7.5 7.5 0 1 0 15 0 a7.5 7.5 0 1 0 -15 0zM444.37 566.41 a7.5 7.5 0 1 0 15 0 a7.5 7.5 0 1 0 -15 0zM444.37 641.41 a7.5 7.5 0 1 0 15 0 a7.5 7.5 0 1 0 -15 0zM379.42 678.91 a7.5 7.5 0 1 0 15 0 a7.5 7.5 0 1 0 -15 0zM444.37 -33.59 a7.5 7.5 0 1 0 15 0 a7.5 7.5 0 1 0 -15 0zM509.33 3.91 a7.5 7.5 0 1 0 15 0 a7.5 7.5 0 1 0 -15 0zM509.33 78.91 a7.5 7.5 0 1 0 15 0 a7.5 7.5 0 1 0 -15 0zM379.42 3.91 a7.5 7.5 0 1 0 15 0 a7.5 7.5 0 1 0 -15 0zM574.28 116.41 a7.5 7.5 0 1 0 15 0 a7.5 7.5 0 1 0 -15 0zM574.28 191.41 a7.5 7.5 0 1 0 15 0 a7.5 7.5 0 1 0 -15 0zM509.33 228.91 a7.5 7.5 0 1 0 15 0 a7.5 7.5 0 1 0 -15 0zM509.33 303.91 a7.5 7.5 0 1 0 15 0 a7.5 7.5 0 1 0 -15 0zM574.28 341.41 a7.5 7.5 0 1 0 15 0 a7.5 7.5 0 1 0 -15 0zM574.28 416.41 a7.5 7.5 0 1 0 15 0 a7.5 7.5 0 1 0 -15 0zM509.33 453.91 a7.5 7.5 0 1 0 15 0 a7.5 7.5 0 1 0 -15 0zM444.37 416.41 a7.5 7.5 0 1 0 15 0 a7.5 7.5 0 1 0 -15 0zM444.37 341.41 a7.5 7.5 0 1 0 15 0 a7.5 7.5 0 1 0 -15 0zM509.33 528.91 a7.5 7.5 0 1 0 15 0 a7.5 7.5 0 1 0 -15 0zM574.28 -33.59 a7.5 7.5 0 1 0 15 0 a7.5 7.5 0 1 0 -15 0zM639.23 3.91 a7.5 7.5 0 1 0 15 0 a7.5 7.5 0 1 0 -15 0zM639.23 78.91 a7.5 7.5 0 1 0 15 0 a7.5 7.5 0 1 0 -15 0zM639.23 303.91 a7.5 7.5 0 1 0 15 0 a7.5 7.5 0 1 0 -15 0zM704.19 341.41 a7.5 7.5 0 1 0 15 0 a7.5 7.5 0 1 0 -15 0zM704.19 416.41 a7.5 7.5 0 1 0 15 0 a7.5 7.5 0 1 0 -15 0zM639.23 453.91 a7.5 7.5 0 1 0 15 0 a7.5 7.5 0 1 0 -15 0zM704.19 -33.59 a7.5 7.5 0 1 0 15 0 a7.5 7.5 0 1 0 -15 0zM769.14 3.91 a7.5 7.5 0 1 0 15 0 a7.5 7.5 0 1 0 -15 0zM769.14 78.91 a7.5 7.5 0 1 0 15 0 a7.5 7.5 0 1 0 -15 0zM704.19 116.41 a7.5 7.5 0 1 0 15 0 a7.5 7.5 0 1 0 -15 0zM704.19 191.41 a7.5 7.5 0 1 0 15 0 a7.5 7.5 0 1 0 -15 0zM769.14 228.91 a7.5 7.5 0 1 0 15 0 a7.5 7.5 0 1 0 -15 0zM769.14 303.91 a7.5 7.5 0 1 0 15 0 a7.5 7.5 0 1 0 -15 0zM639.23 228.91 a7.5 7.5 0 1 0 15 0 a7.5 7.5 0 1 0 -15 0zM834.09 191.41 a7.5 7.5 0 1 0 15 0 a7.5 7.5 0 1 0 -15 0zM899.05 228.91 a7.5 7.5 0 1 0 15 0 a7.5 7.5 0 1 0 -15 0zM899.05 303.91 a7.5 7.5 0 1 0 15 0 a7.5 7.5 0 1 0 -15 0zM834.09 341.41 a7.5 7.5 0 1 0 15 0 a7.5 7.5 0 1 0 -15 0zM964 341.41 a7.5 7.5 0 1 0 15 0 a7.5 7.5 0 1 0 -15 0zM964 416.41 a7.5 7.5 0 1 0 15 0 a7.5 7.5 0 1 0 -15 0zM899.05 453.91 a7.5 7.5 0 1 0 15 0 a7.5 7.5 0 1 0 -15 0zM834.09 416.41 a7.5 7.5 0 1 0 15 0 a7.5 7.5 0 1 0 -15 0zM964 -33.59 a7.5 7.5 0 1 0 15 0 a7.5 7.5 0 1 0 -15 0zM1028.96 3.91 a7.5 7.5 0 1 0 15 0 a7.5 7.5 0 1 0 -15 0zM1028.96 78.91 a7.5 7.5 0 1 0 15 0 a7.5 7.5 0 1 0 -15 0zM964 116.41 a7.5 7.5 0 1 0 15 0 a7.5 7.5 0 1 0 -15 0zM899.05 78.91 a7.5 7.5 0 1 0 15 0 a7.5 7.5 0 1 0 -15 0zM899.05 3.91 a7.5 7.5 0 1 0 15 0 a7.5 7.5 0 1 0 -15 0zM964 191.41 a7.5 7.5 0 1 0 15 0 a7.5 7.5 0 1 0 -15 0zM1028.96 228.91 a7.5 7.5 0 1 0 15 0 a7.5 7.5 0 1 0 -15 0zM1028.96 303.91 a7.5 7.5 0 1 0 15 0 a7.5 7.5 0 1 0 -15 0zM1093.91 341.41 a7.5 7.5 0 1 0 15 0 a7.5 7.5 0 1 0 -15 0zM1093.91 416.41 a7.5 7.5 0 1 0 15 0 a7.5 7.5 0 1 0 -15 0zM1028.96 453.91 a7.5 7.5 0 1 0 15 0 a7.5 7.5 0 1 0 -15 0zM1028.96 528.91 a7.5 7.5 0 1 0 15 0 a7.5 7.5 0 1 0 -15 0zM1093.91 566.41 a7.5 7.5 0 1 0 15 0 a7.5 7.5 0 1 0 -15 0zM1093.91 641.41 a7.5 7.5 0 1 0 15 0 a7.5 7.5 0 1 0 -15 0zM1028.96 678.91 a7.5 7.5 0 1 0 15 0 a7.5 7.5 0 1 0 -15 0zM964 641.41 a7.5 7.5 0 1 0 15 0 a7.5 7.5 0 1 0 -15 0zM964 566.41 a7.5 7.5 0 1 0 15 0 a7.5 7.5 0 1 0 -15 0zM1093.91 -33.59 a7.5 7.5 0 1 0 15 0 a7.5 7.5 0 1 0 -15 0zM1158.86 3.91 a7.5 7.5 0 1 0 15 0 a7.5 7.5 0 1 0 -15 0zM1158.86 78.91 a7.5 7.5 0 1 0 15 0 a7.5 7.5 0 1 0 -15 0zM1093.91 116.41 a7.5 7.5 0 1 0 15 0 a7.5 7.5 0 1 0 -15 0zM1223.82 116.41 a7.5 7.5 0 1 0 15 0 a7.5 7.5 0 1 0 -15 0zM1223.82 191.41 a7.5 7.5 0 1 0 15 0 a7.5 7.5 0 1 0 -15 0zM1158.86 228.91 a7.5 7.5 0 1 0 15 0 a7.5 7.5 0 1 0 -15 0zM1093.91 191.41 a7.5 7.5 0 1 0 15 0 a7.5 7.5 0 1 0 -15 0zM1158.86 303.91 a7.5 7.5 0 1 0 15 0 a7.5 7.5 0 1 0 -15 0zM1223.82 341.41 a7.5 7.5 0 1 0 15 0 a7.5 7.5 0 1 0 -15 0zM1223.82 416.41 a7.5 7.5 0 1 0 15 0 a7.5 7.5 0 1 0 -15 0zM1158.86 453.91 a7.5 7.5 0 1 0 15 0 a7.5 7.5 0 1 0 -15 0zM1158.86 528.91 a7.5 7.5 0 1 0 15 0 a7.5 7.5 0 1 0 -15 0zM1223.82 566.41 a7.5 7.5 0 1 0 15 0 a7.5 7.5 0 1 0 -15 0zM1223.82 641.41 a7.5 7.5 0 1 0 15 0 a7.5 7.5 0 1 0 -15 0zM1158.86 678.91 a7.5 7.5 0 1 0 15 0 a7.5 7.5 0 1 0 -15 0zM1288.77 228.91 a7.5 7.5 0 1 0 15 0 a7.5 7.5 0 1 0 -15 0zM1288.77 303.91 a7.5 7.5 0 1 0 15 0 a7.5 7.5 0 1 0 -15 0zM1353.72 341.41 a7.5 7.5 0 1 0 15 0 a7.5 7.5 0 1 0 -15 0zM1353.72 416.41 a7.5 7.5 0 1 0 15 0 a7.5 7.5 0 1 0 -15 0zM1288.77 453.91 a7.5 7.5 0 1 0 15 0 a7.5 7.5 0 1 0 -15 0zM1288.77 528.91 a7.5 7.5 0 1 0 15 0 a7.5 7.5 0 1 0 -15 0zM1353.72 566.41 a7.5 7.5 0 1 0 15 0 a7.5 7.5 0 1 0 -15 0zM1353.72 641.41 a7.5 7.5 0 1 0 15 0 a7.5 7.5 0 1 0 -15 0zM1288.77 678.91 a7.5 7.5 0 1 0 15 0 a7.5 7.5 0 1 0 -15 0zM1418.68 78.91 a7.5 7.5 0 1 0 15 0 a7.5 7.5 0 1 0 -15 0zM1483.63 116.41 a7.5 7.5 0 1 0 15 0 a7.5 7.5 0 1 0 -15 0zM1483.63 191.41 a7.5 7.5 0 1 0 15 0 a7.5 7.5 0 1 0 -15 0zM1418.68 228.91 a7.5 7.5 0 1 0 15 0 a7.5 7.5 0 1 0 -15 0zM1353.73 191.41 a7.5 7.5 0 1 0 15 0 a7.5 7.5 0 1 0 -15 0zM1353.73 116.41 a7.5 7.5 0 1 0 15 0 a7.5 7.5 0 1 0 -15 0zM1418.68 303.91 a7.5 7.5 0 1 0 15 0 a7.5 7.5 0 1 0 -15 0zM1353.73 341.41 a7.5 7.5 0 1 0 15 0 a7.5 7.5 0 1 0 -15 0zM1418.68 528.91 a7.5 7.5 0 1 0 15 0 a7.5 7.5 0 1 0 -15 0zM1483.63 566.41 a7.5 7.5 0 1 0 15 0 a7.5 7.5 0 1 0 -15 0zM1483.63 641.41 a7.5 7.5 0 1 0 15 0 a7.5 7.5 0 1 0 -15 0zM1418.68 678.91 a7.5 7.5 0 1 0 15 0 a7.5 7.5 0 1 0 -15 0zM1353.73 641.41 a7.5 7.5 0 1 0 15 0 a7.5 7.5 0 1 0 -15 0zM1353.73 566.41 a7.5 7.5 0 1 0 15 0 a7.5 7.5 0 1 0 -15 0zM1548.59 303.91 a7.5 7.5 0 1 0 15 0 a7.5 7.5 0 1 0 -15 0zM1613.54 341.41 a7.5 7.5 0 1 0 15 0 a7.5 7.5 0 1 0 -15 0zM1613.54 416.41 a7.5 7.5 0 1 0 15 0 a7.5 7.5 0 1 0 -15 0zM1548.59 453.91 a7.5 7.5 0 1 0 15 0 a7.5 7.5 0 1 0 -15 0zM1483.63 416.41 a7.5 7.5 0 1 0 15 0 a7.5 7.5 0 1 0 -15 0zM1483.63 341.41 a7.5 7.5 0 1 0 15 0 a7.5 7.5 0 1 0 -15 0z" fill="#03305d"></path><path d="M19.73 -31.64L63.03 -6.64L63.03 43.36L19.73 68.36L-23.57 43.36L-23.57 -6.64zM19.73 268.36L63.03 293.36L63.03 343.36L19.73 368.36L-23.57 343.36L-23.57 293.36zM63.03 493.36L106.34 518.36L106.34 568.36L63.03 593.36L19.73 568.36L19.73 518.36zM149.64 43.36L192.94 68.36L192.94 118.36L149.64 143.36L106.34 118.36L106.34 68.36zM149.64 193.36L192.94 218.36L192.94 268.36L149.64 293.36L106.34 268.36L106.34 218.36zM106.34 268.36L149.64 293.36L149.64 343.36L106.34 368.36L63.03 343.36L63.03 293.36zM236.24 43.36L279.55 68.36L279.55 118.36L236.24 143.36L192.94 118.36L192.94 68.36zM192.94 118.36L236.24 143.36L236.24 193.36L192.94 218.36L149.64 193.36L149.64 143.36zM236.24 343.36L279.55 368.36L279.55 418.36L236.24 443.36L192.94 418.36L192.94 368.36zM322.85 193.36L366.15 218.36L366.15 268.36L322.85 293.36L279.55 268.36L279.55 218.36zM322.85 343.36L366.15 368.36L366.15 418.36L322.85 443.36L279.55 418.36L279.55 368.36zM322.85 493.36L366.15 518.36L366.15 568.36L322.85 593.36L279.55 568.36L279.55 518.36zM409.45 43.36L452.76 68.36L452.76 118.36L409.45 143.36L366.15 118.36L366.15 68.36zM366.15 118.36L409.45 143.36L409.45 193.36L366.15 218.36L322.85 193.36L322.85 143.36zM409.45 493.36L452.76 518.36L452.76 568.36L409.45 593.36L366.15 568.36L366.15 518.36zM452.76 -31.64L496.06 -6.64L496.06 43.36L452.76 68.36L409.45 43.36L409.45 -6.64zM496.06 343.36L539.36 368.36L539.36 418.36L496.06 443.36L452.76 418.36L452.76 368.36zM496.06 493.36L539.36 518.36L539.36 568.36L496.06 593.36L452.76 568.36L452.76 518.36zM539.36 -31.64L582.66 -6.64L582.66 43.36L539.36 68.36L496.06 43.36L496.06 -6.64zM539.36 118.36L582.66 143.36L582.66 193.36L539.36 218.36L496.06 193.36L496.06 143.36zM582.66 193.36L625.97 218.36L625.97 268.36L582.66 293.36L539.36 268.36L539.36 218.36zM669.27 193.36L712.57 218.36L712.57 268.36L669.27 293.36L625.97 268.36L625.97 218.36zM669.27 493.36L712.57 518.36L712.57 568.36L669.27 593.36L625.97 568.36L625.97 518.36zM755.87 43.36L799.18 68.36L799.18 118.36L755.87 143.36L712.57 118.36L712.57 68.36zM712.57 118.36L755.87 143.36L755.87 193.36L712.57 218.36L669.27 193.36L669.27 143.36zM755.87 193.36L799.18 218.36L799.18 268.36L755.87 293.36L712.57 268.36L712.57 218.36zM712.57 268.36L755.87 293.36L755.87 343.36L712.57 368.36L669.27 343.36L669.27 293.36zM755.87 343.36L799.18 368.36L799.18 418.36L755.87 443.36L712.57 418.36L712.57 368.36zM799.18 -31.64L842.48 -6.64L842.48 43.36L799.18 68.36L755.87 43.36L755.87 -6.64zM842.48 43.36L885.78 68.36L885.78 118.36L842.48 143.36L799.18 118.36L799.18 68.36zM799.18 118.36L842.48 143.36L842.48 193.36L799.18 218.36L755.87 193.36L755.87 143.36zM842.48 193.36L885.78 218.36L885.78 268.36L842.48 293.36L799.18 268.36L799.18 218.36zM842.48 343.36L885.78 368.36L885.78 418.36L842.48 443.36L799.18 418.36L799.18 368.36zM799.18 418.36L842.48 443.36L842.48 493.36L799.18 518.36L755.87 493.36L755.87 443.36zM929.08 43.36L972.39 68.36L972.39 118.36L929.08 143.36L885.78 118.36L885.78 68.36zM885.78 418.36L929.08 443.36L929.08 493.36L885.78 518.36L842.48 493.36L842.48 443.36zM972.39 -31.64L1015.69 -6.64L1015.69 43.36L972.39 68.36L929.08 43.36L929.08 -6.64zM1015.69 43.36L1058.99 68.36L1058.99 118.36L1015.69 143.36L972.39 118.36L972.39 68.36zM1015.69 193.36L1058.99 218.36L1058.99 268.36L1015.69 293.36L972.39 268.36L972.39 218.36zM972.39 418.36L1015.69 443.36L1015.69 493.36L972.39 518.36L929.08 493.36L929.08 443.36zM1015.69 493.36L1058.99 518.36L1058.99 568.36L1015.69 593.36L972.39 568.36L972.39 518.36zM1102.29 43.36L1145.6 68.36L1145.6 118.36L1102.29 143.36L1058.99 118.36L1058.99 68.36zM1102.29 193.36L1145.6 218.36L1145.6 268.36L1102.29 293.36L1058.99 268.36L1058.99 218.36zM1058.99 268.36L1102.29 293.36L1102.29 343.36L1058.99 368.36L1015.69 343.36L1015.69 293.36zM1102.29 343.36L1145.6 368.36L1145.6 418.36L1102.29 443.36L1058.99 418.36L1058.99 368.36zM1102.29 493.36L1145.6 518.36L1145.6 568.36L1102.29 593.36L1058.99 568.36L1058.99 518.36zM1145.6 268.36L1188.9 293.36L1188.9 343.36L1145.6 368.36L1102.29 343.36L1102.29 293.36zM1145.6 418.36L1188.9 443.36L1188.9 493.36L1145.6 518.36L1102.29 493.36L1102.29 443.36zM1232.2 -31.64L1275.5 -6.64L1275.5 43.36L1232.2 68.36L1188.9 43.36L1188.9 -6.64zM1232.2 268.36L1275.5 293.36L1275.5 343.36L1232.2 368.36L1188.9 343.36L1188.9 293.36zM1275.5 343.36L1318.81 368.36L1318.81 418.36L1275.5 443.36L1232.2 418.36L1232.2 368.36zM1232.2 418.36L1275.5 443.36L1275.5 493.36L1232.2 518.36L1188.9 493.36L1188.9 443.36zM1318.81 -31.64L1362.11 -6.64L1362.11 43.36L1318.81 68.36L1275.5 43.36L1275.5 -6.64zM1318.81 118.36L1362.11 143.36L1362.11 193.36L1318.81 218.36L1275.5 193.36L1275.5 143.36zM1318.81 418.36L1362.11 443.36L1362.11 493.36L1318.81 518.36L1275.5 493.36L1275.5 443.36zM1405.41 118.36L1448.71 143.36L1448.71 193.36L1405.41 218.36L1362.11 193.36L1362.11 143.36z" stroke="rgba(6, 80, 156, 0.93)" stroke-width="2"></path></g><defs><mask id="SvgjsMask1145"><rect width="1440" height="560" fill="#ffffff"></rect></mask><linearGradient x1="15.28%" y1="-39.29%" x2="84.72%" y2="139.29%" gradientUnits="userSpaceOnUse" id="SvgjsLinearGradient1146"><stop stop-color="#0e2a47" offset="0"></stop><stop stop-color="rgba(158, 0, 139, 1)" offset="1"></stop></linearGradient></defs></svg>